<?xml version="1.0" encoding="UTF-8" standalone="no"?> <svg width="512" height="512" viewBox="0 0 512 512" fill="none" xmlns="http://www.w3.org/2000/svg">
<path fill-rule="evenodd" clip-rule="evenodd" d="M256 480C379.712 480 480 379.712 480 256C480 132.288 379.712 32 256 32C132.288 32 32 132.288 32 256C32 379.712 132.288 480 256 480Z" fill="#32AB45"/>
<path d="M256 144L88 258.383L256 368L424 258.383L256 144Z" fill="#FFE70E"/>
<path d="M320 256C320 291.346 291.346 320 256 320C220.654 320 192 291.346 192 256C192 220.654 220.654 192 256 192C291.346 192 320 220.654 320 256Z" fill="#2A2FAF"/>
<path fill-rule="evenodd" clip-rule="evenodd" d="M201.412 222.56C208.668 220.885 216.227 220 223.992 220C264.845 220 299.977 244.498 315.497 279.606C311.745 289.056 305.807 297.4 298.308 304.015C290.966 269.717 260.482 244 223.992 244C212.636 244 201.863 246.49 192.188 250.954C192.995 240.603 196.265 230.943 201.412 222.56Z" fill="#FBFBFB"/>
</svg>
